<svg width="22.806641" height="22.807251" viewBox="0 0 22.8066 22.8073" fill="none" xmlns="http://www.w3.org/2000/svg" xmlns:xlink="http://www.w3.org/1999/xlink">
	<desc>
			Created with Pixso.
	</desc>
	<defs/>
	<path id="Vector" d="M17.6543 12.3517C17.543 12.2402 17.4111 12.1517 17.2656 12.0913C17.1201 12.031 16.9639 11.9999 16.8057 11.9999C16.6484 11.9999 16.4922 12.031 16.3467 12.0913C16.2012 12.1517 16.0693 12.2402 15.958 12.3517L14.0449 14.2645C13.1582 14.0005 11.5029 13.4005 10.4541 12.3517C9.40625 11.303 8.80566 9.64819 8.54199 8.76135L10.4541 6.84863C10.5664 6.73718 10.6543 6.60498 10.7148 6.45935C10.7754 6.31384 10.8066 6.15784 10.8066 6.00012C10.8066 5.84253 10.7754 5.68652 10.7148 5.54089C10.6543 5.39539 10.5664 5.26318 10.4541 5.15173L5.6543 0.351807C5.54297 0.240356 5.41113 0.151855 5.26562 0.0914307C5.12012 0.0311279 4.96387 0 4.80664 0C4.64844 0 4.49219 0.0311279 4.34668 0.0914307C4.20117 0.151855 4.06934 0.240356 3.95801 0.351807L0.703125 3.6062C0.24707 4.06226 -0.00976562 4.6886 0 5.32825C0.0283203 7.03699 0.480469 12.9722 5.1582 17.6497C9.83496 22.3273 15.7705 22.7784 17.4805 22.8073L17.5137 22.8073C18.1475 22.8073 18.7461 22.5576 19.2002 22.104L22.4541 18.8496C22.5664 18.7383 22.6543 18.6061 22.7148 18.4604C22.7754 18.3149 22.8066 18.1588 22.8066 18.0012C22.8066 17.8436 22.7754 17.6876 22.7148 17.542C22.6543 17.3965 22.5664 17.2642 22.4541 17.1528L17.6543 12.3517ZM17.502 20.406C16.0049 20.3809 10.8809 19.9789 6.85449 15.9517C2.81543 11.9125 2.42383 6.77063 2.40039 5.30298L4.80664 2.89697L7.90918 6.00012L6.35742 7.55176C6.2168 7.69275 6.11328 7.86658 6.05566 8.05762C5.99902 8.24866 5.99023 8.45093 6.03125 8.64612C6.06055 8.78418 6.76465 12.0565 8.75684 14.0485C10.749 16.0405 14.0205 16.7449 14.1592 16.7737C14.3535 16.8157 14.5566 16.8079 14.748 16.751C14.9385 16.6942 15.1133 16.5901 15.2529 16.4485L16.8057 14.8969L19.9092 18L17.502 20.406Z" fill="#8EC2F2" fill-opacity="1.000000" fill-rule="nonzero"/>
</svg>
