<svg width="24.000000" height="29.999634" viewBox="0 0 24 29.9996" fill="none" xmlns="http://www.w3.org/2000/svg" xmlns:xlink="http://www.w3.org/1999/xlink">
	<desc>
			Created with Pixso.
	</desc>
	<defs>
		<clipPath id="clip964_17688">
			<rect id="bx:bx-map" width="24.000000" height="29.999674" fill="white" fill-opacity="0"/>
		</clipPath>
	</defs>
	<rect id="bx:bx-map" width="24.000000" height="29.999674" fill="#FFFFFF" fill-opacity="0"/>
	<g clip-path="url(#clip964_17688)">
		<path id="Vector" d="M12 17.9999C15.3086 17.9999 18 15.3088 18 11.9999C18 8.69092 15.3086 6 12 6C8.69141 6 6 8.69092 6 11.9999C6 15.3088 8.69141 17.9999 12 17.9999ZM12 9C13.6543 9 15 10.3455 15 11.9999C15 13.6544 13.6543 14.9999 12 14.9999C10.3457 14.9999 9 13.6544 9 11.9999C9 10.3455 10.3457 9 12 9Z" fill="#8EC2F2" fill-opacity="1.000000" fill-rule="nonzero"/>
		<path id="Vector" d="M11.1299 29.7207C11.3838 29.902 11.6885 29.9994 12 29.9994C12.3115 29.9994 12.6162 29.902 12.8701 29.7207C13.3262 29.3982 24.043 21.6598 24 11.9999C24 5.38342 18.6162 0 12 0C5.38379 0 0 5.38342 0 11.9924C-0.0429688 21.6598 10.6738 29.3982 11.1299 29.7207ZM12 3C16.9639 3 21 7.03638 21 12.0073C21.0312 18.6643 14.418 24.6417 12 26.6022C9.58398 24.6403 2.96875 18.6613 3 11.9999C3 7.03638 7.03613 3 12 3Z" fill="#8EC2F2" fill-opacity="1.000000" fill-rule="nonzero"/>
	</g>
</svg>
