<svg width="24.000000" height="26.000000" viewBox="0 0 24 26" fill="none" xmlns="http://www.w3.org/2000/svg" xmlns:xlink="http://www.w3.org/1999/xlink">
	<desc>
			Created with Pixso.
	</desc>
	<defs>
		<clipPath id="clip964_17693">
			<rect id="carbon:send-alt" width="24.000000" height="26.000000" fill="white" fill-opacity="0"/>
		</clipPath>
	</defs>
	<rect id="carbon:send-alt" width="24.000000" height="26.000000" fill="#FFFFFF" fill-opacity="0"/>
	<g clip-path="url(#clip964_17693)">
		<path id="Vector" d="M23.71 1.34192C23.5752 1.20227 23.4043 1.10547 23.2188 1.06311C23.0322 1.02075 22.8389 1.03455 22.6602 1.10278L0.660156 9.42273C0.470703 9.49756 0.306641 9.63074 0.191406 9.80432C0.0761719 9.97803 0.0146484 10.1841 0.0146484 10.3951C0.0146484 10.6062 0.0761719 10.8123 0.191406 10.986C0.306641 11.1595 0.470703 11.2927 0.660156 11.3676L10.2598 15.3612L14.0996 25.3451C14.1719 25.5338 14.2959 25.6964 14.4561 25.8127C14.6152 25.9292 14.8047 25.9944 15 26.0004C15.2021 25.9961 15.3984 25.9281 15.5625 25.8057C15.7266 25.6831 15.8516 25.5116 15.9199 25.314L23.9199 2.43396C23.9883 2.25 24.0049 2.04956 23.9678 1.8562C23.9307 1.66296 23.8408 1.4845 23.71 1.34192ZM15 22.0483L12.21 14.7683L17 9.78674L15.5898 8.32031L10.7598 13.3435L3.7998 10.4004L21.3301 3.81714L15 22.0483Z" fill="#8EC2F2" fill-opacity="1.000000" fill-rule="nonzero"/>
	</g>
</svg>
