<svg width="24.000000" height="24.000000" viewBox="0 0 24 24" fill="none" xmlns="http://www.w3.org/2000/svg" xmlns:xlink="http://www.w3.org/1999/xlink">
	<desc>
			Created with Pixso.
	</desc>
	<defs>
		<clipPath id="clip964_17638">
			<rect id="ant-design:facebook-filled" width="24.000000" height="24.000000" fill="white" fill-opacity="0"/>
		</clipPath>
	</defs>
	<rect id="ant-design:facebook-filled" width="24.000000" height="24.000000" fill="#FFFFFF" fill-opacity="0"/>
	<g clip-path="url(#clip964_17638)">
		<path id="Vector" d="M23.04 0L0.959961 0C0.428711 0 0 0.428955 0 0.959961L0 23.04C0 23.571 0.428711 24 0.959961 24L23.04 24C23.5713 24 24 23.571 24 23.04L24 0.959961C24 0.428955 23.5713 0 23.04 0ZM20.2676 7.005L18.3506 7.005C16.8477 7.005 16.5566 7.71899 16.5566 8.76904L16.5566 11.082L20.1445 11.082L19.6768 14.703L16.5566 14.703L16.5566 24L12.8164 24L12.8164 14.7061L9.68652 14.7061L9.68652 11.082L12.8164 11.082L12.8164 8.41199C12.8164 5.31299 14.709 3.62402 17.4746 3.62402C18.8008 3.62402 19.9385 3.72302 20.2715 3.76794L20.2715 7.005L20.2676 7.005Z" fill="#335BF5" fill-opacity="1.000000" fill-rule="nonzero"/>
	</g>
</svg>
