<svg width="24.000000" height="24.000000" viewBox="0 0 24 24" fill="none" xmlns="http://www.w3.org/2000/svg" xmlns:xlink="http://www.w3.org/1999/xlink">
	<desc>
			Created with Pixso.
	</desc>
	<defs>
		<clipPath id="clip964_17640">
			<rect id="ant-design:instagram-outlined" width="24.000000" height="24.000000" fill="white" fill-opacity="0"/>
		</clipPath>
	</defs>
	<rect id="ant-design:instagram-outlined" width="24.000000" height="24.000000" fill="#FFFFFF" fill-opacity="0"/>
	<g clip-path="url(#clip964_17640)">
		<path id="Vector" d="M12.002 5.84717C8.59668 5.84717 5.84863 8.59521 5.84863 12.0002C5.84863 15.4052 8.59668 18.1532 12.002 18.1532C15.4062 18.1532 18.1543 15.4052 18.1543 12.0002C18.1543 8.59521 15.4062 5.84717 12.002 5.84717ZM12.002 15.9991C9.7998 15.9991 8.00293 14.2021 8.00293 12.0002C8.00293 9.79822 9.7998 8.00122 12.002 8.00122C14.2031 8.00122 16.001 9.79822 16.001 12.0002C16.001 14.2021 14.2031 15.9991 12.002 15.9991ZM18.4062 4.16113C17.6113 4.16113 16.9697 4.80322 16.9697 5.59814C16.9697 6.39319 17.6113 7.03516 18.4062 7.03516C19.2012 7.03516 19.8438 6.39624 19.8438 5.59814C19.8438 5.40942 19.8066 5.22241 19.7344 5.04797C19.6621 4.87354 19.5566 4.71509 19.4229 4.58154C19.29 4.44812 19.1309 4.34229 18.957 4.27014C18.7822 4.198 18.5957 4.16101 18.4062 4.16113ZM23.9951 12.0002C23.9951 10.3442 24.0107 8.70325 23.918 7.05017C23.8242 5.13025 23.3867 3.42615 21.9824 2.02222C20.5752 0.615234 18.875 0.180176 16.9541 0.0871582C15.2988 -0.00585938 13.6572 0.00915527 12.0049 0.00915527C10.3486 0.00915527 8.70801 -0.00585938 7.05469 0.0871582C5.13477 0.180176 3.43066 0.618164 2.02637 2.02222C0.619141 3.4292 0.18457 5.13025 0.0917969 7.05017C-0.000976562 8.70618 0.0136719 10.3472 0.0136719 12.0002C0.0136719 13.6532 -0.000976562 15.2972 0.0917969 16.9502C0.18457 18.8702 0.623047 20.5742 2.02637 21.9781C3.43359 23.3851 5.13477 23.8202 7.05469 23.9132C8.71094 24.0062 10.3516 23.9912 12.0049 23.9912C13.6602 23.9912 15.3018 24.0062 16.9541 23.9132C18.875 23.8202 20.5781 23.3822 21.9824 21.9781C23.3896 20.5712 23.8242 18.8702 23.918 16.9502C24.0137 15.2972 23.9951 13.6562 23.9951 12.0002ZM21.3555 19.0742C21.1367 19.6202 20.873 20.0282 20.4492 20.4482C20.0264 20.8712 19.6221 21.1351 19.0752 21.3542C17.498 21.9812 13.751 21.8402 12.002 21.8402C10.2529 21.8402 6.50293 21.9812 4.9248 21.3572C4.37891 21.1382 3.9707 20.8741 3.55078 20.4512C3.12793 20.0282 2.86328 19.6232 2.64453 19.0771C2.02051 17.4962 2.16113 13.7491 2.16113 12.0002C2.16113 10.2512 2.02051 6.50122 2.64453 4.92322C2.86328 4.3772 3.12793 3.96924 3.55078 3.54919C3.97363 3.12915 4.37891 2.86218 4.9248 2.64319C6.50293 2.01917 10.2529 2.16016 12.002 2.16016C13.751 2.16016 17.501 2.01917 19.0781 2.64319C19.625 2.86218 20.0322 3.12622 20.4521 3.54919C20.876 3.97217 21.1396 4.3772 21.3584 4.92322C21.9824 6.50122 21.8418 10.2512 21.8418 12.0002C21.8418 13.7491 21.9824 17.4962 21.3555 19.0742Z" fill="#E61F5A" fill-opacity="1.000000" fill-rule="nonzero"/>
	</g>
</svg>
