<svg width="24.000000" height="19.764648" viewBox="0 0 24 19.7646" fill="none" xmlns="http://www.w3.org/2000/svg" xmlns:xlink="http://www.w3.org/1999/xlink">
	<desc>
			Created with Pixso.
	</desc>
	<defs>
		<clipPath id="clip964_17642">
			<rect id="ant-design:twitter-outlined" width="24.000000" height="19.764706" fill="white" fill-opacity="0"/>
		</clipPath>
	</defs>
	<rect id="ant-design:twitter-outlined" width="24.000000" height="19.764706" fill="#FFFFFF" fill-opacity="0"/>
	<g clip-path="url(#clip964_17642)">
		<path id="Vector" d="M24 2.34778C23.1191 2.73376 22.1592 3.01147 21.1709 3.11963C22.1973 2.5011 22.9658 1.52393 23.332 0.371338C22.3691 0.952515 21.3145 1.36011 20.2148 1.57593C19.7549 1.07715 19.1992 0.679932 18.5811 0.408813C17.9639 0.137695 17.2979 -0.00146484 16.625 0C13.9023 0 11.7119 2.23962 11.7119 4.98792C11.7119 5.3739 11.7588 5.75989 11.833 6.1311C7.75684 5.91479 4.12012 3.93835 1.70312 0.912231C1.2627 1.67566 1.03223 2.54492 1.03516 3.42957C1.03516 5.16052 1.90234 6.68665 3.22461 7.58423C2.44531 7.5531 1.68359 7.33569 1.00293 6.94983L1.00293 7.01123C1.00293 9.43506 2.69141 11.4436 4.94141 11.9056C4.51953 12.017 4.08496 12.074 3.64844 12.0752C3.32812 12.0752 3.02539 12.043 2.7207 11.9991C3.34277 13.9756 5.15527 15.4113 7.3125 15.458C5.62402 16.8 3.50977 17.5895 1.21387 17.5895C0.801758 17.5895 0.420898 17.5748 0.0263672 17.5281C2.2041 18.946 4.78906 19.7646 7.57227 19.7646C16.6074 19.7646 21.5518 12.1687 21.5518 5.57568C21.5518 5.35925 21.5518 5.14294 21.5371 4.92651C22.4932 4.21606 23.332 3.33606 24 2.34778Z" fill="#21A6DF" fill-opacity="1.000000" fill-rule="nonzero"/>
	</g>
</svg>
