<svg width="24.000000" height="17.684204" viewBox="0 0 24 17.6842" fill="none" xmlns="http://www.w3.org/2000/svg" xmlns:xlink="http://www.w3.org/1999/xlink">
	<desc>
			Created with Pixso.
	</desc>
	<defs>
		<clipPath id="clip964_17644">
			<rect id="carbon:logo-youtube" width="24.000000" height="17.684210" fill="white" fill-opacity="0"/>
		</clipPath>
	</defs>
	<rect id="carbon:logo-youtube" width="24.000000" height="17.684210" fill="#FFFFFF" fill-opacity="0"/>
	<g clip-path="url(#clip964_17644)">
		<path id="Vector" d="M23.4697 2.77405C23.333 2.24109 23.0664 1.75513 22.6953 1.36487C22.3242 0.974609 21.8623 0.693726 21.3555 0.550293C19.4883 0.019043 11.9883 0.019043 11.9883 0.019043C11.9883 0.019043 4.4873 0.019043 2.62109 0.550293C2.11426 0.693726 1.65137 0.974609 1.28027 1.36487C0.90918 1.75513 0.642578 2.24109 0.505859 2.77405C0.157227 4.77576 -0.0117188 6.80737 0.000976562 8.84229C-0.0117188 10.8772 0.157227 12.9089 0.505859 14.9106C0.642578 15.4436 0.90918 15.9294 1.28027 16.3198C1.65137 16.7101 2.11426 16.991 2.62109 17.1344C4.4873 17.6656 11.9883 17.6656 11.9883 17.6656C11.9883 17.6656 19.4883 17.6656 21.3555 17.1344C21.8623 16.991 22.3242 16.7101 22.6953 16.3198C23.0664 15.9294 23.333 15.4436 23.4697 14.9106C23.8184 12.9089 23.9873 10.8772 23.9746 8.84229C23.9873 6.80737 23.8184 4.77576 23.4697 2.77405ZM9.59082 12.6238L9.59082 5.06091L15.8154 8.84229L9.59082 12.6238Z" fill="#E42F08" fill-opacity="1.000000" fill-rule="nonzero"/>
	</g>
</svg>
